G04 #@! TF.GenerationSoftware,KiCad,Pcbnew,(5.1.8-0-10_14)*
G04 #@! TF.CreationDate,2021-04-05T23:51:01+09:00*
G04 #@! TF.ProjectId,M5_template,4d355f74-656d-4706-9c61-74652e6b6963,ver 0.1*
G04 #@! TF.SameCoordinates,Original*
G04 #@! TF.FileFunction,Legend,Bot*
G04 #@! TF.FilePolarity,Positive*
%FSLAX46Y46*%
G04 Gerber Fmt 4.6, Leading zero omitted, Abs format (unit mm)*
G04 Created by KiCad (PCBNEW (5.1.8-0-10_14)) date 2021-04-05 23:51:01*
%MOMM*%
%LPD*%
G01*
G04 APERTURE LIST*
%ADD10C,0.200000*%
%ADD11C,0.120000*%
%ADD12C,0.150000*%
%ADD13C,1.000000*%
%ADD14C,3.200000*%
%ADD15C,2.200000*%
%ADD16R,3.150000X1.000000*%
G04 APERTURE END LIST*
D10*
X117496857Y-102266857D02*
X116296857Y-102266857D01*
X117154000Y-102666857D01*
X116296857Y-103066857D01*
X117496857Y-103066857D01*
X117039714Y-103638285D02*
X117039714Y-104552571D01*
X116868285Y-105524000D02*
X116925428Y-105695428D01*
X116982571Y-105752571D01*
X117096857Y-105809714D01*
X117268285Y-105809714D01*
X117382571Y-105752571D01*
X117439714Y-105695428D01*
X117496857Y-105581142D01*
X117496857Y-105124000D01*
X116296857Y-105124000D01*
X116296857Y-105524000D01*
X116354000Y-105638285D01*
X116411142Y-105695428D01*
X116525428Y-105752571D01*
X116639714Y-105752571D01*
X116754000Y-105695428D01*
X116811142Y-105638285D01*
X116868285Y-105524000D01*
X116868285Y-105124000D01*
X116296857Y-106324000D02*
X117268285Y-106324000D01*
X117382571Y-106381142D01*
X117439714Y-106438285D01*
X117496857Y-106552571D01*
X117496857Y-106781142D01*
X117439714Y-106895428D01*
X117382571Y-106952571D01*
X117268285Y-107009714D01*
X116296857Y-107009714D01*
X117439714Y-107524000D02*
X117496857Y-107695428D01*
X117496857Y-107981142D01*
X117439714Y-108095428D01*
X117382571Y-108152571D01*
X117268285Y-108209714D01*
X117154000Y-108209714D01*
X117039714Y-108152571D01*
X116982571Y-108095428D01*
X116925428Y-107981142D01*
X116868285Y-107752571D01*
X116811142Y-107638285D01*
X116754000Y-107581142D01*
X116639714Y-107524000D01*
X116525428Y-107524000D01*
X116411142Y-107581142D01*
X116354000Y-107638285D01*
X116296857Y-107752571D01*
X116296857Y-108038285D01*
X116354000Y-108209714D01*
X116868285Y-110038285D02*
X116925428Y-110209714D01*
X116982571Y-110266857D01*
X117096857Y-110324000D01*
X117268285Y-110324000D01*
X117382571Y-110266857D01*
X117439714Y-110209714D01*
X117496857Y-110095428D01*
X117496857Y-109638285D01*
X116296857Y-109638285D01*
X116296857Y-110038285D01*
X116354000Y-110152571D01*
X116411142Y-110209714D01*
X116525428Y-110266857D01*
X116639714Y-110266857D01*
X116754000Y-110209714D01*
X116811142Y-110152571D01*
X116868285Y-110038285D01*
X116868285Y-109638285D01*
X116296857Y-111066857D02*
X116296857Y-111295428D01*
X116354000Y-111409714D01*
X116468285Y-111524000D01*
X116696857Y-111581142D01*
X117096857Y-111581142D01*
X117325428Y-111524000D01*
X117439714Y-111409714D01*
X117496857Y-111295428D01*
X117496857Y-111066857D01*
X117439714Y-110952571D01*
X117325428Y-110838285D01*
X117096857Y-110781142D01*
X116696857Y-110781142D01*
X116468285Y-110838285D01*
X116354000Y-110952571D01*
X116296857Y-111066857D01*
X116296857Y-111924000D02*
X116296857Y-112609714D01*
X117496857Y-112266857D02*
X116296857Y-112266857D01*
X116296857Y-112838285D02*
X116296857Y-113524000D01*
X117496857Y-113181142D02*
X116296857Y-113181142D01*
X116296857Y-114152571D02*
X116296857Y-114381142D01*
X116354000Y-114495428D01*
X116468285Y-114609714D01*
X116696857Y-114666857D01*
X117096857Y-114666857D01*
X117325428Y-114609714D01*
X117439714Y-114495428D01*
X117496857Y-114381142D01*
X117496857Y-114152571D01*
X117439714Y-114038285D01*
X117325428Y-113924000D01*
X117096857Y-113866857D01*
X116696857Y-113866857D01*
X116468285Y-113924000D01*
X116354000Y-114038285D01*
X116296857Y-114152571D01*
X117496857Y-115181142D02*
X116296857Y-115181142D01*
X117154000Y-115581142D01*
X116296857Y-115981142D01*
X117496857Y-115981142D01*
D11*
X112600000Y-124000000D02*
X112600000Y-125020000D01*
X107400000Y-124000000D02*
X107400000Y-125020000D01*
X112600000Y-121460000D02*
X112600000Y-122480000D01*
X107400000Y-121460000D02*
X107400000Y-122480000D01*
X112600000Y-118920000D02*
X112600000Y-119940000D01*
X107400000Y-118920000D02*
X107400000Y-119940000D01*
X112600000Y-116380000D02*
X112600000Y-117400000D01*
X107400000Y-116380000D02*
X107400000Y-117400000D01*
X112600000Y-113840000D02*
X112600000Y-114860000D01*
X107400000Y-113840000D02*
X107400000Y-114860000D01*
X112600000Y-111300000D02*
X112600000Y-112320000D01*
X107400000Y-111300000D02*
X107400000Y-112320000D01*
X112600000Y-108760000D02*
X112600000Y-109780000D01*
X107400000Y-108760000D02*
X107400000Y-109780000D01*
X112600000Y-106220000D02*
X112600000Y-107240000D01*
X107400000Y-106220000D02*
X107400000Y-107240000D01*
X112600000Y-103680000D02*
X112600000Y-104700000D01*
X107400000Y-103680000D02*
X107400000Y-104700000D01*
X112600000Y-101140000D02*
X112600000Y-102160000D01*
X107400000Y-101140000D02*
X107400000Y-102160000D01*
X112600000Y-98600000D02*
X112600000Y-99620000D01*
X107400000Y-98600000D02*
X107400000Y-99620000D01*
X112600000Y-96060000D02*
X112600000Y-97080000D01*
X107400000Y-96060000D02*
X107400000Y-97080000D01*
X112600000Y-93520000D02*
X112600000Y-94540000D01*
X107400000Y-93520000D02*
X107400000Y-94540000D01*
X112600000Y-90980000D02*
X112600000Y-92000000D01*
X107400000Y-90980000D02*
X107400000Y-92000000D01*
X112600000Y-126540000D02*
X112600000Y-127110000D01*
X107400000Y-126540000D02*
X107400000Y-127110000D01*
X112600000Y-88890000D02*
X112600000Y-89460000D01*
X107400000Y-89460000D02*
X107400000Y-88890000D01*
X105960000Y-89460000D02*
X107400000Y-89460000D01*
X107400000Y-88890000D02*
X112600000Y-88890000D01*
X107400000Y-88890000D02*
X112600000Y-88890000D01*
D12*
X116406380Y-99138666D02*
X117120666Y-99138666D01*
X117263523Y-99091047D01*
X117358761Y-98995809D01*
X117406380Y-98852952D01*
X117406380Y-98757714D01*
X116501619Y-99567238D02*
X116454000Y-99614857D01*
X116406380Y-99710095D01*
X116406380Y-99948190D01*
X116454000Y-100043428D01*
X116501619Y-100091047D01*
X116596857Y-100138666D01*
X116692095Y-100138666D01*
X116834952Y-100091047D01*
X117406380Y-99519619D01*
X117406380Y-100138666D01*
%LPC*%
D13*
X110000000Y-121970000D03*
X110000000Y-124510000D03*
X110000000Y-94030000D03*
X110000000Y-91490000D03*
D14*
X107000000Y-130000000D03*
X107000000Y-86000000D03*
X151000000Y-86000000D03*
X151000000Y-130000000D03*
D15*
X111000000Y-130000000D03*
X111000000Y-86000000D03*
X147000000Y-86000000D03*
X147000000Y-130000000D03*
D16*
X107475000Y-90220000D03*
X112555000Y-90220000D03*
X107475000Y-92760000D03*
X112555000Y-92760000D03*
X107475000Y-95300000D03*
X112555000Y-95300000D03*
X107475000Y-97840000D03*
X112555000Y-97840000D03*
X107475000Y-100380000D03*
X112555000Y-100380000D03*
X107475000Y-102920000D03*
X112555000Y-102920000D03*
X107475000Y-105460000D03*
X112555000Y-105460000D03*
X107475000Y-108000000D03*
X112555000Y-108000000D03*
X107475000Y-110540000D03*
X112555000Y-110540000D03*
X107475000Y-113080000D03*
X112555000Y-113080000D03*
X107475000Y-115620000D03*
X112555000Y-115620000D03*
X107475000Y-118160000D03*
X112555000Y-118160000D03*
X107475000Y-120700000D03*
X112555000Y-120700000D03*
X107475000Y-123240000D03*
X112555000Y-123240000D03*
X107475000Y-125780000D03*
X112555000Y-125780000D03*
M02*
