G04 #@! TF.GenerationSoftware,KiCad,Pcbnew,(5.1.8-0-10_14)*
G04 #@! TF.CreationDate,2021-04-05T23:51:01+09:00*
G04 #@! TF.ProjectId,M5_template,4d355f74-656d-4706-9c61-74652e6b6963,ver 0.1*
G04 #@! TF.SameCoordinates,Original*
G04 #@! TF.FileFunction,Profile,NP*
%FSLAX46Y46*%
G04 Gerber Fmt 4.6, Leading zero omitted, Abs format (unit mm)*
G04 Created by KiCad (PCBNEW (5.1.8-0-10_14)) date 2021-04-05 23:51:01*
%MOMM*%
%LPD*%
G01*
G04 APERTURE LIST*
G04 #@! TA.AperFunction,Profile*
%ADD10C,0.150000*%
G04 #@! TD*
G04 APERTURE END LIST*
D10*
X143700000Y-133000000D02*
X114300000Y-133000000D01*
X144000000Y-132700000D02*
X143700000Y-133000000D01*
X151000000Y-132700000D02*
X144000000Y-132700000D01*
X153700000Y-126000000D02*
X154000000Y-125700000D01*
X153700000Y-130000000D02*
X153700000Y-126000000D01*
X154000000Y-90300000D02*
X154000000Y-125700000D01*
X153700000Y-90000000D02*
X154000000Y-90300000D01*
X153700000Y-86000000D02*
X153700000Y-90000000D01*
X143700000Y-83000000D02*
X117000000Y-83000000D01*
X144000000Y-83300000D02*
X143700000Y-83000000D01*
X151000000Y-83300000D02*
X144000000Y-83300000D01*
X153700000Y-86000000D02*
G75*
G03*
X151000000Y-83300000I-2700000J0D01*
G01*
X151000000Y-132700000D02*
G75*
G03*
X153700000Y-130000000I0J2700000D01*
G01*
X104000000Y-125700000D02*
X104000000Y-90300000D01*
X114000000Y-132700000D02*
X114300000Y-133000000D01*
X107000000Y-132700000D02*
X114000000Y-132700000D01*
X104300000Y-126000000D02*
X104000000Y-125700000D01*
X104300000Y-130000000D02*
X104300000Y-126000000D01*
X104300000Y-130000000D02*
G75*
G03*
X107000000Y-132700000I2700000J0D01*
G01*
X104300000Y-90000000D02*
X104000000Y-90300000D01*
X104300000Y-86000000D02*
X104300000Y-90000000D01*
X112300000Y-83300000D02*
X112500000Y-83500000D01*
X107000000Y-83300000D02*
X112300000Y-83300000D01*
X107000000Y-83300000D02*
G75*
G03*
X104300000Y-86000000I0J-2700000D01*
G01*
X105666666Y-133000000D02*
G75*
G03*
X105666666Y-133000000I-1666666J0D01*
G01*
X101500000Y-133000000D02*
X106500000Y-133000000D01*
X104000000Y-130500000D02*
X104000000Y-135500000D01*
X116000000Y-85500000D02*
X116500000Y-85000000D01*
X112500000Y-85000000D02*
X113000000Y-85500000D01*
X116500000Y-85000000D02*
X116500000Y-83500000D01*
X113000000Y-85500000D02*
X116000000Y-85500000D01*
X112500000Y-83500000D02*
X112500000Y-85000000D01*
X116500000Y-83500000D02*
X117000000Y-83000000D01*
M02*
