M48
; DRILL file {KiCad (5.1.8-0-10_14)} date Monday, April 05, 2021 at 11:50:33 PM
; FORMAT={3:3/ absolute / metric / suppress trailing zeros}
; #@! TF.CreationDate,2021-04-05T23:50:33+09:00
; #@! TF.GenerationSoftware,Kicad,Pcbnew,(5.1.8-0-10_14)
; #@! TF.FileFunction,Plated,1,2,PTH
FMAT,2
METRIC,LZ
T1C0.400
%
G90
G05
T1
X107429Y-107981
X107475Y-09022
X107475Y-09276
X107475Y-0953
X107475Y-09784
X107475Y-10038
X107475Y-10292
X107475Y-10546
X107475Y-11054
X107475Y-11308
X107475Y-11562
X107475Y-11816
X107475Y-1207
X107475Y-12324
X107475Y-12578
X112509Y-095281
X112509Y-102901
X112509Y-107981
X112509Y-125761
X112525Y-09022
X112525Y-09276
X112525Y-09784
X112525Y-10038
X112525Y-10546
X112526Y-123238
X112555Y-11054
X112555Y-11308
X112555Y-11562
X112555Y-11816
X112555Y-1207
T0
M30
